<?xml version="1.0" encoding="utf-8"?>
<!-- Generated by IcoMoon.io -->
<!DOCTYPE svg PUBLIC "-//W3C//DTD SVG 1.1//EN" "http://www.w3.org/Graphics/SVG/1.1/DTD/svg11.dtd">
<svg version="1.1" xmlns="http://www.w3.org/2000/svg" xmlns:xlink="http://www.w3.org/1999/xlink" width="32" height="32" viewBox="0 0 32 32">
<path fill="#ccc" d="M29.193 14.253l-4.787-1.060c-0.287-0.067-0.627-0.12-0.987-0.173l-2.667-4.273c-0.653-0.915-1.686-1.523-2.863-1.593l-8.464-0c-1.165 0.064-2.164 0.717-2.711 1.664l-2.009 3.969h-1.853c-1.037 0.004-1.876 0.843-1.88 1.88v3.76c0.004 1.037 0.843 1.876 1.88 1.88h0.934c0-2.594 2.103-4.697 4.697-4.697s4.697 2.103 4.697 4.697h5.633c0-2.594 2.103-4.697 4.697-4.697s4.697 2.103 4.697 4.697h0.94c1.038 0 1.88-0.842 1.88-1.88v-1.887c-0.040-1.099-0.798-2.010-1.816-2.283zM14.12 12.78h-5.413l1.56-3.113c0.234-0.352 0.603-0.598 1.031-0.666l2.829-0.001zM16 12.78v-3.753h1.88c0.519 0.071 0.966 0.333 1.277 0.71l1.903 3.050z"></path>
<path fill="#ccc" d="M8.487 16.54c-2.077 0-3.76 1.683-3.76 3.76s1.683 3.76 3.76 3.76c2.077 0 3.76-1.683 3.76-3.76s-1.683-3.76-3.76-3.76zM8.487 22.173c-1.038 0-1.88-0.842-1.88-1.88s0.842-1.88 1.88-1.88c1.038 0 1.88 0.842 1.88 1.88s-0.842 1.88-1.88 1.88z"></path>
<path fill="#ccc" d="M23.513 16.54c-2.077 0-3.76 1.683-3.76 3.76s1.683 3.76 3.76 3.76c2.077 0 3.76-1.683 3.76-3.76s-1.683-3.76-3.76-3.76zM23.513 22.173c-1.038 0-1.88-0.842-1.88-1.88s0.842-1.88 1.88-1.88c1.038 0 1.88 0.842 1.88 1.88s-0.842 1.88-1.88 1.88z"></path>
</svg>
