<?xml version="1.0" encoding="utf-8"?>
<!-- Generated by IcoMoon.io -->
<!DOCTYPE svg PUBLIC "-//W3C//DTD SVG 1.1//EN" "http://www.w3.org/Graphics/SVG/1.1/DTD/svg11.dtd">
<svg version="1.1" xmlns="http://www.w3.org/2000/svg" xmlns:xlink="http://www.w3.org/1999/xlink" width="32" height="32" viewBox="0 0 32 32">
<path fill="#ccc" d="M19.607 9.84h-5.84c-2.867 2.827-6.433 7.307-4.6 10.56 1.447 2.573 4.72 3.24 7.893 3.193s6.247-0.8 7.333-3.193c1.32-3.067-2.127-7.647-4.787-10.56zM17.22 19.793v0.92h-0.88v-0.853c-0.56-0.016-1.082-0.157-1.547-0.396l0.287-1.044c0.431 0.241 0.944 0.386 1.491 0.393 0.515 0 0.869-0.2 0.869-0.56s-0.287-0.56-0.953-0.78c-0.96-0.327-1.62-0.773-1.62-1.647 0.028-0.845 0.684-1.528 1.514-1.6l0.006-0.854h0.88v0.793c0.485 0.004 0.942 0.115 1.353 0.308l-0.28 1.005c-0.377-0.19-0.822-0.303-1.292-0.307-0.588 0-0.775 0.253-0.775 0.507s0.313 0.487 1.080 0.773c1.073 0.38 1.5 0.873 1.5 1.68-0.031 0.895-0.741 1.614-1.629 1.66z"></path>
<path fill="#ccc" d="M21.333 5.433c-0.8-0.487-1.787 1.267-2.493 1.24s-1.26-1.753-2.067-1.727-1.12 1.6-1.767 1.72-2.253-1.86-2.9-1.153c-0.52 0.573 1.080 2.853 1.707 3.693h5.767c0.66-0.867 2.42-3.373 1.753-3.773z"></path>
</svg>
