<?xml version="1.0" encoding="utf-8"?>
<!-- Generated by IcoMoon.io -->
<!DOCTYPE svg PUBLIC "-//W3C//DTD SVG 1.1//EN" "http://www.w3.org/Graphics/SVG/1.1/DTD/svg11.dtd">
<svg version="1.1" xmlns="http://www.w3.org/2000/svg" xmlns:xlink="http://www.w3.org/1999/xlink" width="32" height="32" viewBox="0 0 32 32">
<path fill="#ccc" d="M28 9.72v-0.667c0-0.736-0.597-1.333-1.333-1.333h-21.333c-0.736 0-1.333 0.597-1.333 1.333v0.667z"></path>
<path fill="#ccc" d="M12.513 16.867c0 0.567-0.46 1.027-1.027 1.027s-1.027-0.46-1.027-1.027c0-0.567 0.46-1.027 1.027-1.027s1.027 0.46 1.027 1.027z"></path>
<path fill="#ccc" d="M4 12.513v8.82c0 0.736 0.597 1.333 1.333 1.333h21.333c0.736 0 1.333-0.597 1.333-1.333v-8.82zM12.467 18.627c-0.171 0.292-0.345 0.542-0.536 0.779-0.095 0.154-0.252 0.279-0.438 0.34-0.173 0.002-0.333-0.218-0.459-0.352-0.181-0.224-0.355-0.475-0.511-0.737-0.356-0.53-0.592-1.129-0.68-1.774-0.002-0.931 0.735-1.668 1.644-1.668s1.647 0.737 1.647 1.647c-0.090 0.667-0.327 1.266-0.676 1.781zM21.727 18.627h-7.133v-0.673h7.133zM21.727 16.98h-7.133v-0.673h7.133z"></path>
</svg>
