<?xml version="1.0" encoding="utf-8"?>
<!-- Generated by IcoMoon.io -->
<!DOCTYPE svg PUBLIC "-//W3C//DTD SVG 1.1//EN" "http://www.w3.org/Graphics/SVG/1.1/DTD/svg11.dtd">
<svg version="1.1" xmlns="http://www.w3.org/2000/svg" xmlns:xlink="http://www.w3.org/1999/xlink" width="32" height="32" viewBox="0 0 32 32">
<path fill="#ccc" d="M15.953 4.033c-0.105 0.009-0.199 0.050-0.274 0.114l-10.186 8.733c-0.1 0.091-0.162 0.222-0.162 0.367 0 0.274 0.222 0.496 0.496 0.496 0.129 0 0.246-0.049 0.334-0.129l9.84-8.453 9.867 8.453c0.088 0.080 0.205 0.129 0.333 0.129 0.274 0 0.496-0.222 0.496-0.496 0-0.145-0.062-0.276-0.162-0.366l-4.467-3.807v-4.067h-1.94v2.4l-3.807-3.26c-0.085-0.072-0.196-0.116-0.318-0.116-0.017 0-0.034 0.001-0.051 0.003zM16 6l-7.76 6.527v11.4h15.52v-11.4zM12.36 14h2.913v2.913h-2.913zM16.727 14h2.913v2.913h-2.913zM12.36 18.367h2.913v2.913h-2.913zM16.727 18.367h2.913v2.913h-2.913z"></path>
</svg>
