<?xml version="1.0" encoding="utf-8"?>
<!-- Generated by IcoMoon.io -->
<!DOCTYPE svg PUBLIC "-//W3C//DTD SVG 1.1//EN" "http://www.w3.org/Graphics/SVG/1.1/DTD/svg11.dtd">
<svg version="1.1" xmlns="http://www.w3.org/2000/svg" xmlns:xlink="http://www.w3.org/1999/xlink" width="32" height="32" viewBox="0 0 32 32">
<path fill="#ccc" d="M6.753 13.3v0z"></path>
<path fill="#ccc" d="M22.993 16.907c0.002-0.062 0.003-0.134 0.003-0.207 0-0.422-0.040-0.834-0.116-1.234-0.027-0.182-0.15-0.371-0.324-0.491-0.214-0.151-0.458-0.302-0.712-0.437-0.628-0.307-1.313-0.537-2.032-0.676-1.165-0.236-2.444-0.366-3.753-0.366-0.34 0-0.678 0.009-1.013 0.026-0.673 0.023-1.35 0.083-2.016 0.177-1.072 0.131-2.137 0.48-3.098 0.998-0.319 0.183-0.579 0.316-0.686 0.743-0.167 0.982-0.263 2.112-0.263 3.265 0 0.115 0.001 0.231 0.003 0.346-0.001-0.007-0.001 0.005-0.001 0.017 0 0.164 0.085 0.308 0.213 0.392 0.133 0.095 0.282 0.179 0.439 0.248 0.888 0.326 1.903 0.561 2.955 0.668 0.522 0.069 1.069 0.11 1.625 0.118 0.432 0.022 0.927 0.034 1.425 0.034 1.961 0 3.877-0.192 5.731-0.558 0.42-0.129 0.939-0.315 1.436-0.542 0.107-0.043 0.224-0.206 0.224-0.396 0-0.006-0-0.013-0-0.019-0.013-0.499-0.013-1.606-0.040-2.106zM22.033 19.273c-0.223 0.111-0.484 0.205-0.756 0.269-0.431 0.093-0.927 0.166-1.433 0.208-0.971 0.063-1.898 0.116-2.825 0.163-0.347 0-0.667 0-1.033 0-0.553 0-1.093 0-1.653-0.053-0.667-0.033-1.38-0.073-2.067-0.133-0.771-0.034-1.498-0.178-2.18-0.416l-0.013 0.016c-0.187-0.087-0.44-0.267-0.2-0.447 0.161-0.094 0.35-0.164 0.55-0.199 0.287-0.088 0.63-0.169 0.982-0.228 1.055-0.162 2.216-0.25 3.398-0.25 0.144 0 0.288 0.001 0.432 0.004 1.152-0 2.325-0 3.498 0.046 0.86 0.047 1.72 0.2 2.567 0.327 0.245 0.020 0.471 0.077 0.681 0.165 0.172 0.095 0.372 0.381 0.052 0.528z"></path>
<path fill="#ccc" d="M7.093 18.667c0.407 1.381 0.673 2.979 0.739 4.628s-0.225 0.399-1.072 0.445-1.080-0.407-1.080-0.407c0.068-1.688 0.331-3.286 0.768-4.81-0.208 0.030-0.321-0.163-0.321-0.383 0-0.291 0.199-0.536 0.468-0.606l0.004-1.174 0.313 0.187v1c0.276 0.067 0.478 0.311 0.478 0.604 0 0.223-0.118 0.419-0.295 0.528z"></path>
<path fill="#ccc" d="M28.040 14.36l-4.267 2.48v-0.073c0-0.093 0-0.18 0-0.273 0.001-0.034 0.001-0.074 0.001-0.115 0-0.38-0.044-0.75-0.128-1.104-0.079-0.38-0.322-0.725-0.654-0.944l-0.119-0.077c-0.199-0.138-0.43-0.277-0.67-0.403-0.679-0.339-1.426-0.601-2.208-0.767-1.181-0.244-2.467-0.378-3.785-0.378-0.050 0-0.101 0-0.151 0.001-0.326-0-0.659-0-0.992-0-0.793 0.033-1.44 0.087-2.040 0.173-1.296 0.162-2.47 0.558-3.522 1.145-0.475 0.198-0.868 0.643-1.015 1.189-0.113 0.48-0.187 1.025-0.209 1.583l-0.347-0.184-0.727-0.407-0.080-0.053-0.307-0.18-0.080-0.053-0.94-0.533-1.76-1.040c0.287-0.18 0.493-0.313 0.707-0.433q5.387-3.033 10.773-6.080c0.149-0.103 0.334-0.165 0.533-0.165s0.384 0.062 0.537 0.167c3.637 2.071 7.33 4.118 10.943 6.178 0.196 0.119 0.361 0.234 0.52 0.356z"></path>
</svg>
