<?xml version="1.0" encoding="utf-8"?>
<!-- Generated by IcoMoon.io -->
<!DOCTYPE svg PUBLIC "-//W3C//DTD SVG 1.1//EN" "http://www.w3.org/Graphics/SVG/1.1/DTD/svg11.dtd">
<svg version="1.1" xmlns="http://www.w3.org/2000/svg" xmlns:xlink="http://www.w3.org/1999/xlink" width="32" height="32" viewBox="0 0 32 32">
<path fill="#606466" d="M19.773 16.278c0 2-1.674 3.621-3.739 3.621s-3.739-1.621-3.739-3.621c0-2 1.674-3.621 3.739-3.621s3.739 1.621 3.739 3.621z"></path>
<path fill="#606466" d="M21.819 16.48c-0.056 3.105-2.587 5.601-5.7 5.601-0.042 0-0.083-0-0.125-0.001-0.019 0-0.049 0.001-0.079 0.001-3.116 0-5.649-2.5-5.7-5.604-0-0.009-0-0.014-0-0.019 0-0.566 0.086-1.111 0.246-1.624l-1.695 0.039v7.865c0 0.409 0.332 0.741 0.741 0.741h12.977c0.409 0 0.741-0.332 0.741-0.741v-7.857h-1.642c0.15 0.475 0.236 1.021 0.236 1.587 0 0.005 0 0.009-0 0.014z"></path>
<path fill="#606466" d="M20.269 12.758h2.105c0.465 0 0.842-0.377 0.842-0.842v-2.004c0-0.465-0.377-0.842-0.842-0.842h-2.105c-0.465 0-0.842 0.377-0.842 0.842v2.004c0 0.465 0.377 0.842 0.842 0.842z"></path>
<path fill="#606466" d="M16 3.688c-6.976 0-12.632 5.655-12.632 12.632s5.655 12.632 12.632 12.632c6.976 0 12.632-5.655 12.632-12.632s-5.655-12.632-12.632-12.632zM22.922 25.625h-13.819c-0.010 0-0.022 0-0.034 0-1.288 0-2.333-1.044-2.333-2.333 0-0.021 0-0.042 0.001-0.062l-0-13.833c-0-0.018-0.001-0.039-0.001-0.060 0-1.288 1.044-2.333 2.333-2.333 0.021 0 0.042 0 0.063 0.001l13.807-0c0.018-0 0.039-0.001 0.060-0.001 1.288 0 2.333 1.044 2.333 2.333 0 0.021-0 0.042-0.001 0.063l0 13.833c0 0.018 0.001 0.039 0.001 0.060 0 1.288-1.044 2.333-2.333 2.333-0.021 0-0.042-0-0.063-0.001z"></path>
</svg>
